<svg width="87" height="84" viewBox="0 0 87 84" fill="none" xmlns="http://www.w3.org/2000/svg">
<path d="M0.356445 0.875V27.8105V47.0057V73.9412V83.5388H25.8733V73.9412H51.3904C53.8158 73.9412 56.1417 74.9524 57.8567 76.7523C59.5717 78.5522 60.5351 80.9934 60.5351 83.5388H86.1996C86.1964 75.1369 83.4337 66.9929 78.3774 60.479C83.4361 53.9622 86.1988 45.8139 86.1996 37.4081C86.1996 32.6105 85.2992 27.8599 83.5499 23.4275C81.8006 18.9951 79.2366 14.9677 76.0043 11.5753C72.772 8.18291 68.9346 5.4919 64.7113 3.65594C60.4881 1.81997 55.9616 0.875008 51.3904 0.875H25.8733H0.356445ZM25.8733 27.8105H51.3904C53.8158 27.8105 56.1417 28.8217 57.8567 30.6216C59.5717 32.4215 60.5351 34.8626 60.5351 37.4081C60.5351 39.9535 59.5717 42.3947 57.8567 44.1946C56.1417 45.9945 53.8158 47.0057 51.3904 47.0057H25.8733V27.8105Z" fill="url(#paint0_linear_3_85)"/>
<defs>
<linearGradient id="paint0_linear_3_85" x1="0.356495" y1="0.874998" x2="90.0716" y2="79.0979" gradientUnits="userSpaceOnUse">
<stop stop-color="#4200FF"/>
<stop offset="0.588542" stop-color="white"/>
</linearGradient>
</defs>
</svg>
