<svg width="56" height="56" viewBox="0 0 56 56" fill="none" xmlns="http://www.w3.org/2000/svg">
<path fill-rule="evenodd" clip-rule="evenodd" d="M27.8193 5.21963C19.1769 5.21963 12.1708 12.2257 12.1708 20.8681C12.1708 29.5106 19.1769 36.5166 27.8193 36.5166C36.4617 36.5166 43.4678 29.5106 43.4678 20.8681C43.4678 12.2257 36.4617 5.21963 27.8193 5.21963ZM8.69336 20.8681C8.69336 10.3052 17.2563 1.74219 27.8193 1.74219C38.3823 1.74219 46.9452 10.3052 46.9452 20.8681C46.9452 31.4311 38.3823 39.9941 27.8193 39.9941C17.2563 39.9941 8.69336 31.4311 8.69336 20.8681Z" fill="white"/>
<path fill-rule="evenodd" clip-rule="evenodd" d="M27.8185 12.1649C23.0172 12.1649 19.1249 16.0572 19.1249 20.8586C19.1249 25.6599 23.0172 29.5522 27.8185 29.5522C32.6199 29.5522 36.5121 25.6599 36.5121 20.8586C36.5121 16.0572 32.6199 12.1649 27.8185 12.1649ZM15.6475 20.8586C15.6475 14.1367 21.0966 8.6875 27.8185 8.6875C34.5404 8.6875 39.9896 14.1367 39.9896 20.8586C39.9896 27.5804 34.5404 33.0296 27.8185 33.0296C21.0966 33.0296 15.6475 27.5804 15.6475 20.8586Z" fill="white"/>
<path fill-rule="evenodd" clip-rule="evenodd" d="M17.3862 33.0312C18.3465 33.0312 19.1249 33.8097 19.1249 34.77V49.3439L27.0409 45.3859C27.5304 45.1411 28.1066 45.1411 28.5961 45.3859L36.5121 49.3439V34.77C36.5121 33.8097 37.2906 33.0312 38.2508 33.0312C39.2111 33.0312 39.9896 33.8097 39.9896 34.77V52.1572C39.9896 52.7598 39.6776 53.3194 39.1649 53.6362C38.6523 53.953 38.0123 53.9818 37.4733 53.7123L27.8185 48.885L18.1638 53.7123C17.6248 53.9818 16.9847 53.953 16.4721 53.6362C15.9595 53.3194 15.6475 52.7598 15.6475 52.1572V34.77C15.6475 33.8097 16.4259 33.0312 17.3862 33.0312Z" fill="white"/>
</svg>
