<svg width="56" height="56" viewBox="0 0 56 56" fill="none" xmlns="http://www.w3.org/2000/svg">
<path fill-rule="evenodd" clip-rule="evenodd" d="M40.4999 5.72801C41.1789 5.049 42.2798 5.049 42.9588 5.72801L49.9137 12.6829C50.5927 13.3619 50.5927 14.4628 49.9137 15.1418L29.049 36.0065C28.723 36.3326 28.2807 36.5157 27.8196 36.5157H20.8647C19.9044 36.5157 19.126 35.7373 19.126 34.777V27.8221C19.126 27.361 19.3092 26.9187 19.6352 26.5927L40.4999 5.72801ZM22.6034 28.5423V33.0383H27.0994L46.2253 13.9124L41.7294 9.4164L22.6034 28.5423Z" fill="white"/>
<path fill-rule="evenodd" clip-rule="evenodd" d="M35.2827 10.9389C35.9617 10.2599 37.0626 10.2599 37.7416 10.9389L44.6965 17.8938C45.3755 18.5728 45.3755 19.6737 44.6965 20.3528C44.0175 21.0318 42.9166 21.0318 42.2376 20.3528L35.2827 13.3979C34.6037 12.7189 34.6037 11.618 35.2827 10.9389Z" fill="white"/>
<path fill-rule="evenodd" clip-rule="evenodd" d="M7.97262 7.97946C8.62477 7.32731 9.50927 6.96094 10.4315 6.96094H29.5575C30.5178 6.96094 31.2962 7.73939 31.2962 8.69966C31.2962 9.65993 30.5178 10.4384 29.5575 10.4384L10.4315 10.4384L10.4315 45.2128H45.206V26.0869C45.206 25.1266 45.9844 24.3482 46.9447 24.3482C47.905 24.3482 48.6834 25.1266 48.6834 26.0869V45.2128C48.6834 46.1351 48.3171 47.0196 47.6649 47.6717C47.0128 48.3239 46.1283 48.6903 45.206 48.6903H10.4315C9.50927 48.6903 8.62477 48.3239 7.97262 47.6717C7.32047 47.0196 6.9541 46.1351 6.9541 45.2128V10.4384C6.9541 9.5161 7.32048 8.6316 7.97262 7.97946Z" fill="white"/>
</svg>
