<svg width="56" height="56" viewBox="0 0 56 56" fill="none" xmlns="http://www.w3.org/2000/svg">
<path fill-rule="evenodd" clip-rule="evenodd" d="M17.5794 5.32497C18.3309 5.22856 19.0932 5.3818 19.7491 5.76111C20.4021 6.13872 20.9135 6.71955 21.2054 7.41484L25.5676 17.5934C25.5682 17.5949 25.5689 17.5963 25.5695 17.5978C25.7954 18.1197 25.8897 18.6891 25.8444 19.2561C25.7989 19.8246 25.6143 20.3732 25.3068 20.8535L25.2954 20.8714L21.6726 26.3813C23.2894 29.716 25.986 32.4061 29.3246 34.0149L29.3316 34.0101L34.7609 30.3834C35.2427 30.0581 35.7988 29.8595 36.3778 29.8062C36.9567 29.7529 37.5398 29.8465 38.0729 30.0784C38.0751 30.0793 38.0772 30.0803 38.0794 30.0812L48.233 34.442C48.928 34.734 49.5085 35.2452 49.886 35.8979C50.2653 36.5538 50.4185 37.3162 50.3221 38.0677C49.946 41.0033 48.5131 43.7012 46.2916 45.6568C44.07 47.6123 41.2121 48.6913 38.2525 48.692C29.952 48.692 21.9911 45.3946 16.1218 39.5253C10.2524 33.656 6.95508 25.6955 6.95508 17.395C6.95575 14.4354 8.03479 11.577 9.9903 9.3555C11.9457 7.13411 14.644 5.7012 17.5794 5.32497ZM20.1042 27.1318L18.5358 27.8824C18.279 27.3459 18.1642 26.7524 18.2022 26.1588C18.2403 25.5652 18.4299 24.9913 18.7531 24.4919L18.76 24.4813L22.378 18.9786L22.3747 18.971L18.0061 8.77774C15.9154 9.04951 13.9938 10.0704 12.6005 11.6532C11.2038 13.2399 10.4331 15.2811 10.4325 17.395M20.1042 27.1318L18.5393 27.8896C20.4997 31.938 23.7733 35.2032 27.8267 37.1532L27.8363 37.1578C28.3821 37.4162 28.9858 37.5281 29.5879 37.4824C30.1885 37.4368 30.7669 37.2359 31.2665 36.8996C31.2677 36.8987 31.269 36.8979 31.2703 36.897L36.6967 33.2722L46.8681 37.6404L46.8708 37.6416C46.599 39.7323 45.5767 41.6533 43.9939 43.0465C42.4072 44.4432 40.3659 45.214 38.2521 45.2145M10.4325 17.395C10.4326 24.7731 13.3636 31.8493 18.5807 37.0664C23.7978 42.2835 30.874 45.2144 38.2521 45.2145" fill="white"/>
<path fill-rule="evenodd" clip-rule="evenodd" d="M34.7739 10.4297C35.7341 10.4297 36.5126 11.2081 36.5126 12.1684V19.1233H43.4675C44.4278 19.1233 45.2062 19.9017 45.2062 20.862C45.2062 21.8223 44.4278 22.6007 43.4675 22.6007H34.7739C33.8136 22.6007 33.0352 21.8223 33.0352 20.862V12.1684C33.0352 11.2081 33.8136 10.4297 34.7739 10.4297Z" fill="white"/>
<path fill-rule="evenodd" clip-rule="evenodd" d="M46.4357 9.19676C47.1147 9.87577 47.1147 10.9767 46.4357 11.6557L36.0033 22.088C35.3243 22.767 34.2234 22.767 33.5444 22.088C32.8654 21.409 32.8654 20.3081 33.5444 19.6291L43.9767 9.19676C44.6558 8.51775 45.7567 8.51775 46.4357 9.19676Z" fill="white"/>
</svg>
