<svg width="56" height="56" viewBox="0 0 56 56" fill="none" xmlns="http://www.w3.org/2000/svg">
<path fill-rule="evenodd" clip-rule="evenodd" d="M19.1264 13.9071C13.8449 13.9071 9.56338 18.1886 9.56338 23.4701C9.56338 28.7516 13.8449 33.0331 19.1264 33.0331C24.4078 33.0331 28.6893 28.7516 28.6893 23.4701C28.6893 18.1886 24.4078 13.9071 19.1264 13.9071ZM6.08594 23.4701C6.08594 16.2681 11.9243 10.4297 19.1264 10.4297C26.3284 10.4297 32.1668 16.2681 32.1668 23.4701C32.1668 30.6721 26.3284 36.5105 19.1264 36.5105C11.9243 36.5105 6.08594 30.6721 6.08594 23.4701Z" fill="white"/>
<path fill-rule="evenodd" clip-rule="evenodd" d="M36.8335 10.4297L36.8388 10.4297C40.2973 10.4297 43.6142 11.8036 46.0598 14.2491C48.5053 16.6947 49.8792 20.0116 49.8792 23.4701C49.8792 26.9286 48.5053 30.2455 46.0598 32.6911C43.6142 35.1366 40.2973 36.5105 36.8388 36.5105C35.8785 36.5105 35.1001 35.7321 35.1001 34.7718C35.1001 33.8115 35.8785 33.0331 36.8388 33.0331C39.3751 33.0331 41.8074 32.0256 43.6009 30.2322C45.3943 28.4387 46.4018 26.0064 46.4018 23.4701C46.4018 20.9339 45.3943 18.5015 43.6009 16.7081C41.8081 14.9153 39.3768 13.9078 36.8414 13.9071C35.9591 13.9101 35.081 14.0285 34.2294 14.2595C33.3027 14.5108 32.3476 13.9633 32.0962 13.0365C31.8449 12.1097 32.3924 11.1546 33.3192 10.9033C34.4649 10.5925 35.6464 10.4333 36.8335 10.4297Z" fill="white"/>
<path fill-rule="evenodd" clip-rule="evenodd" d="M19.1256 36.5087C16.3354 36.5087 13.5862 37.1802 11.1102 38.4665C8.63411 39.7528 6.504 41.6161 4.89974 43.899C4.34762 44.6846 3.26313 44.874 2.47745 44.3219C1.69178 43.7697 1.50244 42.6852 2.05456 41.8996C3.97967 39.1601 6.53581 36.9241 9.50706 35.3806C12.4783 33.8371 15.7774 33.0312 19.1256 33.0312C22.4739 33.0312 25.773 33.8371 28.7442 35.3806C31.7155 36.9241 34.2716 39.1601 36.1967 41.8996C36.7489 42.6852 36.5595 43.7697 35.7738 44.3219C34.9882 44.874 33.9037 44.6846 33.3516 43.899C31.7473 41.6161 29.6172 39.7528 27.1411 38.4665C24.6651 37.1802 21.9159 36.5087 19.1256 36.5087Z" fill="white"/>
<path fill-rule="evenodd" clip-rule="evenodd" d="M44.857 38.4637C42.381 37.1776 39.6315 36.507 36.8414 36.5087C35.8811 36.5093 35.1022 35.7313 35.1016 34.7711C35.101 33.8108 35.8789 33.0318 36.8392 33.0313C40.1881 33.0292 43.4881 33.8341 46.46 35.3778C49.4318 36.9215 51.9879 39.1586 53.9119 41.8996C54.4636 42.6855 54.2737 43.7699 53.4877 44.3216C52.7017 44.8733 51.6173 44.6834 51.0656 43.8974C49.4627 41.6137 47.333 39.7499 44.857 38.4637Z" fill="white"/>
</svg>
